<svg xmlns="http://www.w3.org/2000/svg" width="1024" height="1024" viewBox="0 0 1024 1024"><defs><linearGradient id="bg" x1="0" x2="0" y1="0" y2="1"><stop offset="0" stop-color="#3A3F4B"/><stop offset="1" stop-color="#121418"/></linearGradient><linearGradient id="sheen" x1="0" x2="0" y1="0" y2="1"><stop offset="0" stop-color="#FFF" stop-opacity=".16"/><stop offset=".5" stop-color="#FFF" stop-opacity="0"/></linearGradient><linearGradient id="glass" x1="0" x2="1" y1="0" y2="0"><stop offset="0" stop-color="#FFF" stop-opacity=".22"/><stop offset="1" stop-color="#FFF" stop-opacity=".1"/></linearGradient><linearGradient id="purple" x1="0" x2="0" y1="0" y2="1"><stop offset="0" stop-color="#9A8CFF"/><stop offset="1" stop-color="#5A44E6"/></linearGradient><filter id="shadow" width="140%" height="140%" x="-20%" y="-20%"><feDropShadow dx="0" dy="10" flood-color="#000" flood-opacity=".45" stdDeviation="14"/></filter></defs><rect width="824" height="824" x="100" y="100" fill="url(#bg)" rx="185"/><rect width="824" height="824" x="100" y="100" fill="url(#sheen)" rx="185"/><rect width="821" height="821" x="101.5" y="101.5" fill="none" stroke="#FFF" stroke-opacity=".1" stroke-width="3" rx="183.5"/><g filter="url(#shadow)"><rect width="150" height="560" x="662" y="232" fill="url(#glass)" stroke="#FFF" stroke-opacity=".35" stroke-width="4" rx="62"/></g><rect width="80" height="80" x="697" y="274" fill="#0A84FF" rx="20"/><rect width="80" height="80" x="697" y="382" fill="#32D74B" rx="20"/><rect width="80" height="80" x="697" y="490" fill="#FF9F0A" rx="20"/><rect width="80" height="80" x="697" y="598" fill="url(#purple)" rx="20"/><rect width="42" height="52" x="716" y="612" fill="#FFF" rx="8"/><rect width="24" height="15" x="725" y="603" fill="#3B2BB8" stroke="#FFF" stroke-width="4" rx="5"/><rect width="26" height="5" x="724" y="630" fill="#7B6BF0" rx="2.5"/><rect width="18" height="5" x="724" y="643" fill="#7B6BF0" rx="2.5"/><circle cx="795" cy="314" r="7" fill="#FFF" fill-opacity=".7"/><circle cx="795" cy="530" r="7" fill="#FFF" fill-opacity=".7"/><g filter="url(#shadow)"><path fill="#FFF" fill-opacity=".14" stroke="#FFF" stroke-opacity=".35" stroke-width="4" d="M 238 520 a 44 44 0 0 1 44 -44 h 290 a 44 44 0 0 1 44 44 v 22 l 30 30 l -30 30 v 22 a 44 44 0 0 1 -44 44 h -290 a 44 44 0 0 1 -44 -44 z"/></g><rect width="170" height="26" x="280" y="522" fill="#FFF" fill-opacity=".85" rx="13"/><rect width="250" height="18" x="280" y="568" fill="#FFF" fill-opacity=".35" rx="9"/><rect width="120" height="18" x="280" y="604" fill="#FFF" fill-opacity=".35" rx="9"/></svg>